<svg xmlns="http://www.w3.org/2000/svg" xmlns:xlink="http://www.w3.org/1999/xlink" viewBox="0 0 181.89 200"><defs><style>.cls-1{isolation:isolate;}.cls-2{fill:url(#radial-gradient);}.cls-15,.cls-16,.cls-17,.cls-20,.cls-21,.cls-22,.cls-24,.cls-26,.cls-28,.cls-3,.cls-30,.cls-4{mix-blend-mode:overlay;}.cls-3{fill:url(#radial-gradient-2);}.cls-16,.cls-21,.cls-4{opacity:0.4;}.cls-4{fill:url(#Degradado_sin_nombre_34);}.cls-5{fill:url(#radial-gradient-3);}.cls-6{fill:url(#radial-gradient-4);}.cls-7{fill:url(#radial-gradient-5);}.cls-8{fill:url(#radial-gradient-6);}.cls-9{fill:url(#radial-gradient-7);}.cls-10{fill:url(#radial-gradient-8);}.cls-11{fill:url(#radial-gradient-9);}.cls-12{fill:url(#radial-gradient-10);}.cls-13{fill:url(#radial-gradient-11);}.cls-14{fill:url(#radial-gradient-12);}.cls-15{fill:url(#radial-gradient-13);}.cls-16{fill:url(#radial-gradient-14);}.cls-17,.cls-22{opacity:0.2;}.cls-17{fill:url(#Degradado_sin_nombre_34-2);}.cls-18{fill:url(#radial-gradient-15);}.cls-19{fill:url(#radial-gradient-16);}.cls-20{fill:url(#radial-gradient-17);}.cls-21{fill:url(#radial-gradient-18);}.cls-22{fill:url(#Degradado_sin_nombre_34-3);}.cls-23{fill:url(#radial-gradient-19);}.cls-24{fill:url(#radial-gradient-20);}.cls-25{fill:url(#radial-gradient-21);}.cls-26{fill:url(#radial-gradient-22);}.cls-27{fill:url(#radial-gradient-23);}.cls-28{fill:url(#radial-gradient-24);}.cls-29{fill:url(#radial-gradient-25);}.cls-30{fill:url(#radial-gradient-26);}</style><radialGradient id="radial-gradient" cx="-78.77" cy="49.01" r="96.7" gradientTransform="matrix(-1, 0, 0, 1, 25.67, 0)" gradientUnits="userSpaceOnUse"><stop offset="0" stop-color="#fff8c7"/><stop offset="0.16" stop-color="#ffe436"/><stop offset="1" stop-color="#fe761c"/></radialGradient><radialGradient id="radial-gradient-2" cx="1130.36" cy="-1818.54" r="14.52" gradientTransform="matrix(-0.84, 1.15, -1.62, -1.31, -1882.16, -3632.05)" gradientUnits="userSpaceOnUse"><stop offset="0" stop-color="#fff"/><stop offset="0.1" stop-color="#fff" stop-opacity="0.85"/><stop offset="0.29" stop-color="#fff" stop-opacity="0.59"/><stop offset="0.47" stop-color="#fff" stop-opacity="0.38"/><stop offset="0.63" stop-color="#fff" stop-opacity="0.22"/><stop offset="0.78" stop-color="#fff" stop-opacity="0.1"/><stop offset="0.91" stop-color="#fff" stop-opacity="0.03"/><stop offset="1" stop-color="#fff" stop-opacity="0"/></radialGradient><radialGradient id="Degradado_sin_nombre_34" cx="-2920.48" cy="2953.89" r="14.01" gradientTransform="matrix(-1.17, -1.1, 0.22, -0.73, -4013.51, -955.63)" xlink:href="#radial-gradient-2"/><radialGradient id="radial-gradient-3" cx="93.92" cy="3.12" r="16.83" gradientTransform="matrix(1, 0, 0, 1, 0, 0)" xlink:href="#radial-gradient"/><radialGradient id="radial-gradient-4" cx="509.71" cy="-233.27" r="16.83" gradientTransform="translate(-156.91 550.48) rotate(-45)" xlink:href="#radial-gradient"/><radialGradient id="radial-gradient-5" cx="970.78" cy="-106.61" r="16.83" gradientTransform="translate(121.58 1050.6) rotate(-90)" xlink:href="#radial-gradient"/><radialGradient id="radial-gradient-6" cx="1207.33" cy="309.18" r="16.83" gradientTransform="translate(672.06 1207.51) rotate(-135)" xlink:href="#radial-gradient"/><radialGradient id="radial-gradient-7" cx="1080.5" cy="770.25" r="16.83" gradientTransform="translate(1172.18 929.03) rotate(180)" xlink:href="#radial-gradient"/><radialGradient id="radial-gradient-8" cx="664.88" cy="1006.81" r="16.83" gradientTransform="translate(1329.09 378.55) rotate(135)" xlink:href="#radial-gradient"/><radialGradient id="radial-gradient-9" cx="203.64" cy="879.98" r="16.83" gradientTransform="translate(1050.61 -121.57) rotate(90)" xlink:href="#radial-gradient"/><radialGradient id="radial-gradient-10" cx="-32.75" cy="464.36" r="16.83" gradientTransform="translate(500.13 -278.49) rotate(45)" xlink:href="#radial-gradient"/><radialGradient id="radial-gradient-11" cx="1450.17" cy="101.07" r="87.52" gradientTransform="matrix(-1, 0, 0, 1, 1485.19, 0)" gradientUnits="userSpaceOnUse"><stop offset="0" stop-color="#fff"/><stop offset="0.2" stop-color="#d9f7ff"/><stop offset="1" stop-color="#89c0f5"/></radialGradient><radialGradient id="radial-gradient-12" cx="66.33" cy="97.89" r="87.57" gradientUnits="userSpaceOnUse"><stop offset="0" stop-color="#ffe436"/><stop offset="0.08" stop-color="#ffcf31" stop-opacity="0.81"/><stop offset="0.18" stop-color="#ffb72b" stop-opacity="0.6"/><stop offset="0.28" stop-color="#fea327" stop-opacity="0.41"/><stop offset="0.38" stop-color="#fe9323" stop-opacity="0.26"/><stop offset="0.48" stop-color="#fe8620" stop-opacity="0.15"/><stop offset="0.58" stop-color="#fe7d1e" stop-opacity="0.07"/><stop offset="0.68" stop-color="#fe781c" stop-opacity="0.02"/><stop offset="0.77" stop-color="#fe761c" stop-opacity="0"/></radialGradient><radialGradient id="radial-gradient-13" cx="568.66" cy="-2353.55" r="10.27" gradientTransform="matrix(0.84, 1.15, 1.62, -1.31, 3367.35, -3632.05)" xlink:href="#radial-gradient-2"/><radialGradient id="radial-gradient-14" cx="598.98" cy="-2338.34" r="5.64" gradientTransform="matrix(0.84, 1.15, 1.62, -1.31, 3367.35, -3632.05)" xlink:href="#radial-gradient-2"/><radialGradient id="Degradado_sin_nombre_34-2" cx="1549.54" cy="197.48" r="5.9" gradientTransform="matrix(-0.71, -0.46, -1.4, 1.83, 1473.6, 497.51)" xlink:href="#radial-gradient-2"/><radialGradient id="radial-gradient-15" cx="-715.1" cy="58.47" r="69.41" gradientTransform="translate(891.36)" xlink:href="#radial-gradient-11"/><radialGradient id="radial-gradient-16" cx="116.02" cy="72.69" r="80.72" xlink:href="#radial-gradient-12"/><radialGradient id="radial-gradient-17" cx="1501.4" cy="-1499.42" r="8.14" gradientTransform="matrix(-0.84, 1.15, -1.62, -1.31, -990.8, -3632.05)" xlink:href="#radial-gradient-2"/><radialGradient id="radial-gradient-18" cx="1525.44" cy="-1487.36" r="4.48" gradientTransform="matrix(-0.84, 1.15, -1.62, -1.31, -990.8, -3632.05)" xlink:href="#radial-gradient-2"/><radialGradient id="Degradado_sin_nombre_34-3" cx="-919.87" cy="-322.99" r="4.68" gradientTransform="matrix(0.71, -0.46, 1.4, 1.83, 1222.71, 266.26)" xlink:href="#radial-gradient-2"/><radialGradient id="radial-gradient-19" cx="-199.41" cy="120.14" r="21.37" gradientTransform="translate(272.71 189.2) rotate(30)" gradientUnits="userSpaceOnUse"><stop offset="0" stop-color="#d4f6ff"/><stop offset="0.2" stop-color="#d9f7ff"/><stop offset="1" stop-color="#89c0f5"/></radialGradient><radialGradient id="radial-gradient-20" cx="1300.77" cy="-1714.09" r="3.35" gradientTransform="matrix(-1.3, 0.58, -0.75, -1.95, 459.08, -3897.13)" xlink:href="#radial-gradient-2"/><radialGradient id="radial-gradient-21" cx="-167.05" cy="101.46" r="21.37" xlink:href="#radial-gradient-19"/><radialGradient id="radial-gradient-22" cx="1276.28" cy="-1721.38" r="3.35" gradientTransform="matrix(-1.3, 0.58, -0.75, -1.95, 459.08, -3897.13)" xlink:href="#radial-gradient-2"/><radialGradient id="radial-gradient-23" cx="-134.69" cy="82.77" r="21.37" xlink:href="#radial-gradient-19"/><radialGradient id="radial-gradient-24" cx="1251.78" cy="-1728.67" r="3.35" gradientTransform="matrix(-1.3, 0.58, -0.75, -1.95, 459.08, -3897.13)" xlink:href="#radial-gradient-2"/><radialGradient id="radial-gradient-25" cx="-102.33" cy="64.09" r="21.37" xlink:href="#radial-gradient-19"/><radialGradient id="radial-gradient-26" cx="1227.29" cy="-1735.96" r="3.35" gradientTransform="matrix(-1.3, 0.58, -0.75, -1.95, 459.08, -3897.13)" xlink:href="#radial-gradient-2"/></defs><g class="cls-1"><g id="Rain3"><path class="cls-2" d="M41.86,80.94A50.94,50.94,0,1,0,92.8,30,50.93,50.93,0,0,0,41.86,80.94Z" transform="translate(-11.85)"/><path class="cls-3" d="M100.56,75.7c-13-10.53-18-26.54-11.32-35.79s22.7-8.21,35.68,2.3S143,68.77,136.23,78,113.53,86.22,100.56,75.7Z" transform="translate(-11.85)"/><path class="cls-4" d="M47.77,92.2c1.72-5.63,10.46-3.3,19.52,5.22s15,20,13.31,25.62-10.45,3.3-19.52-5.22S46.06,97.83,47.77,92.2Z" transform="translate(-11.85)"/><path class="cls-5" d="M99,14.94a6.18,6.18,0,0,1-6.18,6.18h0a6.17,6.17,0,0,1-6.18-6.18V6.18A6.17,6.17,0,0,1,92.8,0h0A6.18,6.18,0,0,1,99,6.18Z" transform="translate(-11.85)"/><path class="cls-6" d="M50.5,29.91a6.19,6.19,0,0,1,0,8.74h0a6.18,6.18,0,0,1-8.74,0l-6.2-6.19a6.17,6.17,0,0,1,0-8.74h0a6.19,6.19,0,0,1,8.74,0Z" transform="translate(-11.85)"/><path class="cls-7" d="M26.8,74.77A6.17,6.17,0,0,1,33,81h0a6.18,6.18,0,0,1-6.17,6.18H18A6.18,6.18,0,0,1,11.85,81h0A6.17,6.17,0,0,1,18,74.77Z" transform="translate(-11.85)"/><path class="cls-8" d="M41.76,123.25a6.17,6.17,0,0,1,8.74,0h0a6.19,6.19,0,0,1,0,8.74l-6.2,6.19a6.18,6.18,0,0,1-8.74,0h0a6.18,6.18,0,0,1,0-8.74Z" transform="translate(-11.85)"/><path class="cls-9" d="M86.62,147a6.17,6.17,0,0,1,6.18-6.18h0A6.18,6.18,0,0,1,99,147v8.76a6.19,6.19,0,0,1-6.18,6.19h0a6.18,6.18,0,0,1-6.18-6.19Z" transform="translate(-11.85)"/><path class="cls-10" d="M135.1,132a6.17,6.17,0,0,1,0-8.74h0a6.17,6.17,0,0,1,8.74,0l6.2,6.19a6.19,6.19,0,0,1,0,8.74h0a6.17,6.17,0,0,1-8.74,0Z" transform="translate(-11.85)"/><path class="cls-11" d="M158.8,87.12a6.18,6.18,0,0,1-6.18-6.18h0a6.18,6.18,0,0,1,6.18-6.17h8.77a6.18,6.18,0,0,1,6.18,6.17h0a6.18,6.18,0,0,1-6.18,6.18Z" transform="translate(-11.85)"/><path class="cls-12" d="M143.83,38.64a6.16,6.16,0,0,1-8.73,0h0a6.16,6.16,0,0,1,0-8.73l6.2-6.2a6.18,6.18,0,0,1,8.74,0h0a6.18,6.18,0,0,1,0,8.74Z" transform="translate(-11.85)"/><path class="cls-13" d="M48.24,91.39a35.26,35.26,0,0,1,34.25,27,22.92,22.92,0,1,1,10,43.56H48.24a35.26,35.26,0,1,1,0-70.51Z" transform="translate(-11.85)"/><path class="cls-14" d="M48.24,91.39a35.26,35.26,0,0,1,34.25,27,22.92,22.92,0,1,1,10,43.56H48.24a35.26,35.26,0,1,1,0-70.51Z" transform="translate(-11.85)"/><path class="cls-15" d="M43.72,125.08c9.18-7.45,12.76-18.78,8-25.32S35.66,94,26.48,101.38s-12.76,18.8-8,25.33S34.54,132.52,43.72,125.08Z" transform="translate(-11.85)"/><path class="cls-16" d="M89.91,134.75c5-4.09,7-10.32,4.4-13.92s-8.83-3.19-13.88.9-7,10.33-4.4,13.92S84.86,138.84,89.91,134.75Z" transform="translate(-11.85)"/><path class="cls-17" d="M101.1,143.67c5.55-5.61,11.28-7.81,12.8-4.91s-1.74,9.81-7.29,15.42-11.28,7.81-12.8,4.9S95.55,149.28,101.1,143.67Z" transform="translate(-11.85)"/><path class="cls-18" d="M165.78,50.79a28,28,0,0,0-27.16,21.37,18.18,18.18,0,1,0-7.91,34.54h35.07a28,28,0,0,0,0-55.91Z" transform="translate(-11.85)"/><path class="cls-19" d="M165.78,50.79a28,28,0,0,0-27.16,21.37,18.18,18.18,0,1,0-7.91,34.54h35.07a28,28,0,0,0,0-55.91Z" transform="translate(-11.85)"/><path class="cls-20" d="M169.36,77.51c-7.28-5.91-10.12-14.9-6.35-20.09s12.74-4.6,20,1.29,10.12,14.91,6.35,20.09S176.64,83.41,169.36,77.51Z" transform="translate(-11.85)"/><path class="cls-21" d="M132.73,85.17c-4-3.24-5.56-8.18-3.49-11s7-2.54,11,.71,5.56,8.19,3.49,11S136.73,88.42,132.73,85.17Z" transform="translate(-11.85)"/><path class="cls-22" d="M123.86,92.25c-4.41-4.45-9-6.2-10.16-3.89s1.38,7.77,5.78,12.22,9,6.19,10.16,3.89S128.26,96.7,123.86,92.25Z" transform="translate(-11.85)"/><path class="cls-23" d="M51.84,195.56a8.88,8.88,0,0,1-15.39-8.88c2.46-4.25,17.63-12.76,17.63-12.76S54.29,191.31,51.84,195.56Z" transform="translate(-11.85)"/><path class="cls-24" d="M36.71,194.08c-1.37-3.59-.54-7.38,1.87-8.45s5.48,1,6.86,4.57.54,7.39-1.87,8.46S38.09,197.68,36.71,194.08Z" transform="translate(-11.85)"/><path class="cls-25" d="M89.2,195.56a8.88,8.88,0,1,1-15.38-8.88c2.45-4.25,17.62-12.76,17.62-12.76S91.66,191.31,89.2,195.56Z" transform="translate(-11.85)"/><path class="cls-26" d="M74.08,194.08c-1.38-3.59-.54-7.38,1.87-8.45s5.48,1,6.86,4.57.54,7.39-1.87,8.46S75.46,197.68,74.08,194.08Z" transform="translate(-11.85)"/><path class="cls-27" d="M126.57,195.56a8.88,8.88,0,1,1-15.38-8.88c2.45-4.25,17.62-12.76,17.62-12.76S129,191.31,126.57,195.56Z" transform="translate(-11.85)"/><path class="cls-28" d="M111.45,194.08c-1.38-3.59-.55-7.38,1.87-8.45s5.48,1,6.85,4.57.54,7.39-1.87,8.46S112.82,197.68,111.45,194.08Z" transform="translate(-11.85)"/><path class="cls-29" d="M163.94,195.56a8.88,8.88,0,0,1-15.39-8.88c2.46-4.25,17.62-12.76,17.62-12.76S166.39,191.31,163.94,195.56Z" transform="translate(-11.85)"/><path class="cls-30" d="M148.81,194.08c-1.37-3.59-.54-7.38,1.87-8.45s5.48,1,6.86,4.57.54,7.39-1.87,8.46S150.19,197.68,148.81,194.08Z" transform="translate(-11.85)"/></g></g></svg>