<svg id="Capa_18" data-name="Capa 18" xmlns="http://www.w3.org/2000/svg" xmlns:xlink="http://www.w3.org/1999/xlink" viewBox="0 0 189.84 207.01"><defs><style>.cls-1,.cls-10,.cls-11,.cls-12,.cls-13,.cls-14,.cls-15,.cls-16,.cls-17,.cls-18,.cls-19,.cls-2,.cls-3,.cls-4,.cls-5,.cls-6,.cls-7,.cls-8,.cls-9{fill:none;stroke-linecap:round;stroke-miterlimit:10;stroke-width:12px;}.cls-1{stroke:url(#linear-gradient);}.cls-2{stroke:url(#linear-gradient-2);}.cls-3{stroke:url(#linear-gradient-3);}.cls-4{stroke:url(#linear-gradient-4);}.cls-5{stroke:url(#linear-gradient-5);}.cls-6{stroke:url(#linear-gradient-6);}.cls-7{stroke:url(#linear-gradient-7);}.cls-8{stroke:url(#linear-gradient-8);}.cls-9{stroke:url(#linear-gradient-9);}.cls-10{stroke:url(#linear-gradient-10);}.cls-11{stroke:url(#linear-gradient-11);}.cls-12{stroke:url(#linear-gradient-12);}.cls-13{stroke:url(#linear-gradient-13);}.cls-14{stroke:url(#linear-gradient-14);}.cls-15{stroke:url(#linear-gradient-15);}.cls-16{stroke:url(#linear-gradient-16);}.cls-17{stroke:url(#linear-gradient-17);}.cls-18{stroke:url(#linear-gradient-18);}.cls-19{stroke:url(#linear-gradient-19);}</style><linearGradient id="linear-gradient" x1="-154.7" y1="-159.27" x2="-142.7" y2="-159.27" gradientTransform="translate(300.3 35.66) rotate(-45)" gradientUnits="userSpaceOnUse"><stop offset="0" stop-color="#fff"/><stop offset="0.2" stop-color="#d9f7ff"/><stop offset="1" stop-color="#89c0f5"/></linearGradient><linearGradient id="linear-gradient-2" x1="-37.53" y1="-42.1" x2="-25.53" y2="-42.1" gradientTransform="matrix(-0.71, -0.71, -0.71, 0.71, 56.24, 35.66)" xlink:href="#linear-gradient"/><linearGradient id="linear-gradient-3" x1="89.16" y1="41" x2="101.16" y2="41" gradientTransform="matrix(1, 0, 0, 1, 0, 0)" xlink:href="#linear-gradient"/><linearGradient id="linear-gradient-4" x1="399.23" y1="-713.2" x2="411.23" y2="-713.2" gradientTransform="matrix(0.71, 0.71, 0.71, -0.71, 300.3, -612.02)" xlink:href="#linear-gradient"/><linearGradient id="linear-gradient-5" x1="516.4" y1="-596.03" x2="528.4" y2="-596.03" gradientTransform="translate(56.24 -612.02) rotate(135)" xlink:href="#linear-gradient"/><linearGradient id="linear-gradient-6" x1="95.41" y1="-745.62" x2="107.41" y2="-745.62" gradientTransform="matrix(1, 0, 0, -1, -6.25, -579.6)" xlink:href="#linear-gradient"/><linearGradient id="linear-gradient-7" x1="171.26" y1="20.58" x2="183.26" y2="20.58" gradientTransform="translate(-11.94 -10.63) rotate(15)" xlink:href="#linear-gradient"/><linearGradient id="linear-gradient-8" x1="-217.64" y1="-367.61" x2="-205.64" y2="-367.61" gradientTransform="matrix(0.26, -0.97, -0.97, -0.26, -133.97, -222)" xlink:href="#linear-gradient"/><linearGradient id="linear-gradient-9" x1="453.08" y1="-65.56" x2="465.08" y2="-65.56" gradientTransform="translate(-137.14 -292.32) rotate(60)" xlink:href="#linear-gradient"/><linearGradient id="linear-gradient-10" x1="579.08" y1="-387.23" x2="591.08" y2="-387.23" gradientTransform="matrix(-0.26, 0.97, 0.97, 0.26, 548.97, -334.48)" xlink:href="#linear-gradient"/><linearGradient id="linear-gradient-11" x1="190.88" y1="-776.13" x2="202.88" y2="-776.13" gradientTransform="translate(426.94 -545.84) rotate(-165)" xlink:href="#linear-gradient"/><linearGradient id="linear-gradient-12" x1="453.08" y1="-642.3" x2="465.08" y2="-642.3" gradientTransform="matrix(0.5, 0.87, 0.87, -0.5, 367.62, -583.75)" xlink:href="#linear-gradient"/><linearGradient id="linear-gradient-13" x1="-161.93" y1="-531.49" x2="-149.93" y2="-531.49" gradientTransform="translate(496.52 -211.6) rotate(-105)" xlink:href="#linear-gradient"/><linearGradient id="linear-gradient-14" x1="335.14" y1="-35.13" x2="347.14" y2="-35.13" gradientTransform="matrix(-0.97, 0.26, 0.26, 0.97, 374.49, -0.24)" xlink:href="#linear-gradient"/><linearGradient id="linear-gradient-15" x1="-172.9" y1="-220.33" x2="-160.9" y2="-220.33" gradientTransform="translate(315.17 37.67) rotate(-60)" xlink:href="#linear-gradient"/><linearGradient id="linear-gradient-16" x1="27.01" y1="-720.43" x2="39.01" y2="-720.43" gradientTransform="matrix(0.97, -0.26, -0.26, -0.97, -64.39, -535.45)" xlink:href="#linear-gradient"/><linearGradient id="linear-gradient-17" x1="523.37" y1="-223.36" x2="535.37" y2="-223.36" gradientTransform="translate(-186.42 -324.08) rotate(75)" xlink:href="#linear-gradient"/><linearGradient id="linear-gradient-18" x1="-172.9" y1="-487.53" x2="-160.9" y2="-487.53" gradientTransform="matrix(0.5, -0.87, -0.87, -0.5, -189.59, -253.75)" xlink:href="#linear-gradient"/><linearGradient id="linear-gradient-19" x1="61.66" y1="103.51" x2="128.67" y2="103.51" gradientTransform="matrix(1, 0, 0, 1, 0, 0)" xlink:href="#linear-gradient"/></defs><line class="cls-1" x1="69.72" y1="15.38" x2="95.35" y2="41"/><line class="cls-2" x1="121.12" y1="15.38" x2="95.49" y2="41"/><line class="cls-3" x1="95.16" y1="6" x2="95.16" y2="76"/><line class="cls-4" x1="69.72" y1="191.64" x2="95.35" y2="166.01"/><line class="cls-5" x1="121.12" y1="191.64" x2="95.49" y2="166.01"/><line class="cls-6" x1="95.16" y1="201.01" x2="95.16" y2="131.01"/><line class="cls-7" x1="158.64" y1="37.62" x2="149.27" y2="72.62"/><line class="cls-8" x1="183.84" y1="82.26" x2="148.84" y2="72.88"/><line class="cls-9" x1="179.49" y1="54.96" x2="118.86" y2="89.97"/><line class="cls-10" x1="6" y1="125.75" x2="41" y2="135.13"/><line class="cls-11" x1="31.2" y1="170.39" x2="40.58" y2="135.39"/><line class="cls-12" x1="10.6" y1="152.47" x2="71.22" y2="117.47"/><line class="cls-13" x1="6" y1="81.26" x2="41" y2="71.88"/><line class="cls-14" x1="31.2" y1="36.62" x2="40.58" y2="71.62"/><line class="cls-15" x1="10.6" y1="54.54" x2="71.22" y2="89.54"/><line class="cls-16" x1="158.64" y1="169.39" x2="149.27" y2="134.39"/><line class="cls-17" x1="183.84" y1="124.75" x2="148.84" y2="134.13"/><line class="cls-18" x1="179.49" y1="152.05" x2="118.86" y2="117.05"/><circle class="cls-19" cx="95.16" cy="103.51" r="27.5"/></svg>